<mxfile host="65bd71144e">
    <diagram id="2Q5nVtx4BR8TXtKDtNm_" name="Page-1">
        <mxGraphModel dx="1130" dy="907" grid="0" gridSize="10" guides="1" tooltips="1" connect="1" arrows="1" fold="1" page="1" pageScale="1" pageWidth="1920" pageHeight="1200" background="#F1FAEE" math="0" shadow="0">
            <root>
                <mxCell id="0"/>
                <mxCell id="1" parent="0"/>
                <mxCell id="12" value="dogs" style="shape=table;startSize=35;container=1;collapsible=0;childLayout=tableLayout;fixedRows=1;rowLines=0;fontStyle=1;align=center;fillColor=#A8DADC;strokeColor=#457B9D;fontColor=#1D3557;rounded=1;shadow=0;" parent="1" vertex="1">
                    <mxGeometry x="34" y="96" width="818" height="183.27" as="geometry"/>
                </mxCell>
                <mxCell id="31" style="shape=partialRectangle;html=1;whiteSpace=wrap;collapsible=0;dropTarget=0;pointerEvents=0;fillColor=none;top=0;left=0;bottom=1;right=0;points=[[0,0.5],[1,0.5]];portConstraint=eastwest;strokeColor=#457B9D;fontColor=#1D3557;" parent="12" vertex="1">
                    <mxGeometry y="35" width="818" height="24" as="geometry"/>
                </mxCell>
                <mxCell id="32" value="&lt;u&gt;id&lt;/u&gt;" style="shape=partialRectangle;html=1;whiteSpace=wrap;connectable=0;fillColor=none;top=0;left=0;bottom=0;right=0;overflow=hidden;strokeColor=#457B9D;fontColor=#1D3557;" parent="31" vertex="1">
                    <mxGeometry width="26" height="24" as="geometry"/>
                </mxCell>
                <mxCell id="33" value="&lt;u&gt;name&lt;/u&gt;" style="shape=partialRectangle;html=1;whiteSpace=wrap;connectable=0;fillColor=none;top=0;left=0;bottom=0;right=0;align=left;spacingLeft=6;overflow=hidden;strokeColor=#457B9D;fontColor=#1D3557;" parent="31" vertex="1">
                    <mxGeometry x="26" width="133" height="24" as="geometry"/>
                </mxCell>
                <mxCell id="135" value="&lt;u&gt;qualities (TEXT)&lt;/u&gt;" style="shape=partialRectangle;html=1;whiteSpace=wrap;connectable=0;fillColor=none;top=0;left=0;bottom=0;right=0;align=left;spacingLeft=6;overflow=hidden;strokeColor=#457B9D;fontColor=#1D3557;fontStyle=4" parent="31" vertex="1">
                    <mxGeometry x="159" width="196" height="24" as="geometry"/>
                </mxCell>
                <mxCell id="142" value="&lt;u&gt;size (INT)&lt;/u&gt;" style="shape=partialRectangle;html=1;whiteSpace=wrap;connectable=0;fillColor=none;top=0;left=0;bottom=0;right=0;align=left;spacingLeft=6;overflow=hidden;strokeColor=#457B9D;fontColor=#1D3557;fontStyle=4" parent="31" vertex="1">
                    <mxGeometry x="355" width="69" height="24" as="geometry"/>
                </mxCell>
                <mxCell id="186" value="group" style="shape=partialRectangle;html=1;whiteSpace=wrap;connectable=0;fillColor=none;top=0;left=0;bottom=0;right=0;align=left;spacingLeft=6;overflow=hidden;strokeColor=#457B9D;fontColor=#1D3557;fontStyle=4" vertex="1" parent="31">
                    <mxGeometry x="424" width="131" height="24" as="geometry"/>
                </mxCell>
                <mxCell id="219" value="puppy_price" style="shape=partialRectangle;html=1;whiteSpace=wrap;connectable=0;fillColor=none;top=0;left=0;bottom=0;right=0;align=left;spacingLeft=6;overflow=hidden;strokeColor=#457B9D;fontColor=#1D3557;fontStyle=4" vertex="1" parent="31">
                    <mxGeometry x="555" width="106" height="24" as="geometry"/>
                </mxCell>
                <mxCell id="223" value="exercise_needs (INT)" style="shape=partialRectangle;html=1;whiteSpace=wrap;connectable=0;fillColor=none;top=0;left=0;bottom=0;right=0;align=left;spacingLeft=6;overflow=hidden;strokeColor=#457B9D;fontColor=#1D3557;fontStyle=4" vertex="1" parent="31">
                    <mxGeometry x="661" width="157" height="24" as="geometry"/>
                </mxCell>
                <mxCell id="13" value="" style="shape=partialRectangle;html=1;whiteSpace=wrap;collapsible=0;dropTarget=0;pointerEvents=0;fillColor=none;top=0;left=0;bottom=1;right=0;points=[[0,0.5],[1,0.5]];portConstraint=eastwest;strokeColor=#457B9D;fontColor=#1D3557;" parent="12" vertex="1">
                    <mxGeometry y="59" width="818" height="31" as="geometry"/>
                </mxCell>
                <mxCell id="14" value="1" style="shape=partialRectangle;html=1;whiteSpace=wrap;connectable=0;fillColor=none;top=0;left=0;bottom=0;right=0;overflow=hidden;strokeColor=#457B9D;fontColor=#1D3557;" parent="13" vertex="1">
                    <mxGeometry width="26" height="31" as="geometry"/>
                </mxCell>
                <mxCell id="15" value="Golden Retriever" style="shape=partialRectangle;html=1;whiteSpace=wrap;connectable=0;fillColor=none;top=0;left=0;bottom=0;right=0;align=left;spacingLeft=6;overflow=hidden;strokeColor=#457B9D;fontColor=#1D3557;" parent="13" vertex="1">
                    <mxGeometry x="26" width="133" height="31" as="geometry"/>
                </mxCell>
                <mxCell id="136" value="&lt;p class=&quot;p1&quot; style=&quot;margin: 0px ; font-stretch: normal ; line-height: normal ; font-family: &amp;#34;helvetica neue&amp;#34; ; color: rgb(0 , 0 , 0)&quot;&gt;&lt;font style=&quot;font-size: 12px&quot;&gt;The golden retriever is&amp;nbsp;even-tempered, intelligent and affectionate. Golden retrievers are playful, yet gentle with children, and they tend to get along well with other pets and strangers.&lt;/font&gt;&lt;/p&gt;" style="shape=partialRectangle;html=1;whiteSpace=wrap;connectable=0;fillColor=none;top=0;left=0;bottom=0;right=0;align=left;spacingLeft=6;overflow=hidden;strokeColor=#457B9D;fontColor=#1D3557;" parent="13" vertex="1">
                    <mxGeometry x="159" width="196" height="31" as="geometry"/>
                </mxCell>
                <mxCell id="143" value="66.5" style="shape=partialRectangle;html=1;whiteSpace=wrap;connectable=0;fillColor=none;top=0;left=0;bottom=0;right=0;align=left;spacingLeft=6;overflow=hidden;strokeColor=#457B9D;fontColor=#1D3557;" parent="13" vertex="1">
                    <mxGeometry x="355" width="69" height="31" as="geometry"/>
                </mxCell>
                <mxCell id="187" value="sporting" style="shape=partialRectangle;html=1;whiteSpace=wrap;connectable=0;fillColor=none;top=0;left=0;bottom=0;right=0;align=left;spacingLeft=6;overflow=hidden;strokeColor=#457B9D;fontColor=#1D3557;" vertex="1" parent="13">
                    <mxGeometry x="424" width="131" height="31" as="geometry"/>
                </mxCell>
                <mxCell id="220" style="shape=partialRectangle;html=1;whiteSpace=wrap;connectable=0;fillColor=none;top=0;left=0;bottom=0;right=0;align=left;spacingLeft=6;overflow=hidden;strokeColor=#457B9D;fontColor=#1D3557;" vertex="1" parent="13">
                    <mxGeometry x="555" width="106" height="31" as="geometry"/>
                </mxCell>
                <mxCell id="224" style="shape=partialRectangle;html=1;whiteSpace=wrap;connectable=0;fillColor=none;top=0;left=0;bottom=0;right=0;align=left;spacingLeft=6;overflow=hidden;strokeColor=#457B9D;fontColor=#1D3557;" vertex="1" parent="13">
                    <mxGeometry x="661" width="157" height="31" as="geometry"/>
                </mxCell>
                <mxCell id="28" style="shape=partialRectangle;html=1;whiteSpace=wrap;collapsible=0;dropTarget=0;pointerEvents=0;fillColor=none;top=0;left=0;bottom=1;right=0;points=[[0,0.5],[1,0.5]];portConstraint=eastwest;strokeColor=#457B9D;fontColor=#1D3557;" parent="12" vertex="1">
                    <mxGeometry y="90" width="818" height="29" as="geometry"/>
                </mxCell>
                <mxCell id="29" value="2" style="shape=partialRectangle;html=1;whiteSpace=wrap;connectable=0;fillColor=none;top=0;left=0;bottom=0;right=0;overflow=hidden;strokeColor=#457B9D;fontColor=#1D3557;" parent="28" vertex="1">
                    <mxGeometry width="26" height="29" as="geometry"/>
                </mxCell>
                <mxCell id="30" value="Poodle" style="shape=partialRectangle;html=1;whiteSpace=wrap;connectable=0;fillColor=none;top=0;left=0;bottom=0;right=0;align=left;spacingLeft=6;overflow=hidden;strokeColor=#457B9D;fontColor=#1D3557;" parent="28" vertex="1">
                    <mxGeometry x="26" width="133" height="29" as="geometry"/>
                </mxCell>
                <mxCell id="137" value="&lt;p class=&quot;p1&quot; style=&quot;margin: 0px ; font-stretch: normal ; line-height: normal ; font-family: &amp;#34;helvetica neue&amp;#34; ; color: rgb(0 , 0 , 0)&quot;&gt;&lt;font style=&quot;font-size: 12px&quot;&gt;Poodles are notorious for their intelligence and ease of training. They are&amp;nbsp;lively, active, fun-loving dogs&amp;nbsp;with a sense of the ridiculous. Poodles thrive on attention and can develop bad habits such as nuisance barking if ignored or left alone.&lt;/font&gt;&lt;/p&gt;" style="shape=partialRectangle;html=1;whiteSpace=wrap;connectable=0;fillColor=none;top=0;left=0;bottom=0;right=0;align=left;spacingLeft=6;overflow=hidden;strokeColor=#457B9D;fontColor=#1D3557;" parent="28" vertex="1">
                    <mxGeometry x="159" width="196" height="29" as="geometry"/>
                </mxCell>
                <mxCell id="144" value="55" style="shape=partialRectangle;html=1;whiteSpace=wrap;connectable=0;fillColor=none;top=0;left=0;bottom=0;right=0;align=left;spacingLeft=6;overflow=hidden;strokeColor=#457B9D;fontColor=#1D3557;" parent="28" vertex="1">
                    <mxGeometry x="355" width="69" height="29" as="geometry"/>
                </mxCell>
                <mxCell id="188" value="non_sporting" style="shape=partialRectangle;html=1;whiteSpace=wrap;connectable=0;fillColor=none;top=0;left=0;bottom=0;right=0;align=left;spacingLeft=6;overflow=hidden;strokeColor=#457B9D;fontColor=#1D3557;" vertex="1" parent="28">
                    <mxGeometry x="424" width="131" height="29" as="geometry"/>
                </mxCell>
                <mxCell id="221" style="shape=partialRectangle;html=1;whiteSpace=wrap;connectable=0;fillColor=none;top=0;left=0;bottom=0;right=0;align=left;spacingLeft=6;overflow=hidden;strokeColor=#457B9D;fontColor=#1D3557;" vertex="1" parent="28">
                    <mxGeometry x="555" width="106" height="29" as="geometry"/>
                </mxCell>
                <mxCell id="225" style="shape=partialRectangle;html=1;whiteSpace=wrap;connectable=0;fillColor=none;top=0;left=0;bottom=0;right=0;align=left;spacingLeft=6;overflow=hidden;strokeColor=#457B9D;fontColor=#1D3557;" vertex="1" parent="28">
                    <mxGeometry x="661" width="157" height="29" as="geometry"/>
                </mxCell>
                <mxCell id="25" style="shape=partialRectangle;html=1;whiteSpace=wrap;collapsible=0;dropTarget=0;pointerEvents=0;fillColor=none;top=0;left=0;bottom=1;right=0;points=[[0,0.5],[1,0.5]];portConstraint=eastwest;strokeColor=#457B9D;fontColor=#1D3557;" parent="12" vertex="1">
                    <mxGeometry y="119" width="818" height="32" as="geometry"/>
                </mxCell>
                <mxCell id="26" value="3" style="shape=partialRectangle;html=1;whiteSpace=wrap;connectable=0;fillColor=none;top=0;left=0;bottom=0;right=0;overflow=hidden;strokeColor=#457B9D;fontColor=#1D3557;" parent="25" vertex="1">
                    <mxGeometry width="26" height="32" as="geometry"/>
                </mxCell>
                <mxCell id="27" value="Goldendoodle" style="shape=partialRectangle;html=1;whiteSpace=wrap;connectable=0;fillColor=none;top=0;left=0;bottom=0;right=0;align=left;spacingLeft=6;overflow=hidden;strokeColor=#457B9D;fontColor=#1D3557;" parent="25" vertex="1">
                    <mxGeometry x="26" width="133" height="32" as="geometry"/>
                </mxCell>
                <mxCell id="138" value="&lt;span style=&quot;color: rgb(0 , 0 , 0) ; font-family: &amp;#34;helvetica neue&amp;#34;&quot;&gt;More often than not, they're&amp;nbsp;intelligent, obedient and extremely loving dogs. Goldendoodles love people and also get along great with other pets, and they tend to be patient and gentle with young children — making them a fantastic choice for families.&lt;/span&gt;" style="shape=partialRectangle;html=1;whiteSpace=wrap;connectable=0;fillColor=none;top=0;left=0;bottom=0;right=0;align=left;spacingLeft=6;overflow=hidden;strokeColor=#457B9D;fontColor=#1D3557;" parent="25" vertex="1">
                    <mxGeometry x="159" width="196" height="32" as="geometry"/>
                </mxCell>
                <mxCell id="145" value="60" style="shape=partialRectangle;html=1;whiteSpace=wrap;connectable=0;fillColor=none;top=0;left=0;bottom=0;right=0;align=left;spacingLeft=6;overflow=hidden;strokeColor=#457B9D;fontColor=#1D3557;" parent="25" vertex="1">
                    <mxGeometry x="355" width="69" height="32" as="geometry"/>
                </mxCell>
                <mxCell id="189" value="nil" style="shape=partialRectangle;html=1;whiteSpace=wrap;connectable=0;fillColor=none;top=0;left=0;bottom=0;right=0;align=left;spacingLeft=6;overflow=hidden;strokeColor=#457B9D;fontColor=#1D3557;" vertex="1" parent="25">
                    <mxGeometry x="424" width="131" height="32" as="geometry"/>
                </mxCell>
                <mxCell id="222" style="shape=partialRectangle;html=1;whiteSpace=wrap;connectable=0;fillColor=none;top=0;left=0;bottom=0;right=0;align=left;spacingLeft=6;overflow=hidden;strokeColor=#457B9D;fontColor=#1D3557;" vertex="1" parent="25">
                    <mxGeometry x="555" width="106" height="32" as="geometry"/>
                </mxCell>
                <mxCell id="226" style="shape=partialRectangle;html=1;whiteSpace=wrap;connectable=0;fillColor=none;top=0;left=0;bottom=0;right=0;align=left;spacingLeft=6;overflow=hidden;strokeColor=#457B9D;fontColor=#1D3557;" vertex="1" parent="25">
                    <mxGeometry x="661" width="157" height="32" as="geometry"/>
                </mxCell>
                <mxCell id="236" style="shape=partialRectangle;html=1;whiteSpace=wrap;collapsible=0;dropTarget=0;pointerEvents=0;fillColor=none;top=0;left=0;bottom=1;right=0;points=[[0,0.5],[1,0.5]];portConstraint=eastwest;strokeColor=#457B9D;fontColor=#1D3557;" vertex="1" parent="12">
                    <mxGeometry y="151" width="818" height="32" as="geometry"/>
                </mxCell>
                <mxCell id="237" value="4" style="shape=partialRectangle;html=1;whiteSpace=wrap;connectable=0;fillColor=none;top=0;left=0;bottom=0;right=0;overflow=hidden;strokeColor=#457B9D;fontColor=#1D3557;" vertex="1" parent="236">
                    <mxGeometry width="26" height="32" as="geometry"/>
                </mxCell>
                <mxCell id="238" style="shape=partialRectangle;html=1;whiteSpace=wrap;connectable=0;fillColor=none;top=0;left=0;bottom=0;right=0;align=left;spacingLeft=6;overflow=hidden;strokeColor=#457B9D;fontColor=#1D3557;" vertex="1" parent="236">
                    <mxGeometry x="26" width="133" height="32" as="geometry"/>
                </mxCell>
                <mxCell id="239" style="shape=partialRectangle;html=1;whiteSpace=wrap;connectable=0;fillColor=none;top=0;left=0;bottom=0;right=0;align=left;spacingLeft=6;overflow=hidden;strokeColor=#457B9D;fontColor=#1D3557;" vertex="1" parent="236">
                    <mxGeometry x="159" width="196" height="32" as="geometry"/>
                </mxCell>
                <mxCell id="240" style="shape=partialRectangle;html=1;whiteSpace=wrap;connectable=0;fillColor=none;top=0;left=0;bottom=0;right=0;align=left;spacingLeft=6;overflow=hidden;strokeColor=#457B9D;fontColor=#1D3557;" vertex="1" parent="236">
                    <mxGeometry x="355" width="69" height="32" as="geometry"/>
                </mxCell>
                <mxCell id="241" style="shape=partialRectangle;html=1;whiteSpace=wrap;connectable=0;fillColor=none;top=0;left=0;bottom=0;right=0;align=left;spacingLeft=6;overflow=hidden;strokeColor=#457B9D;fontColor=#1D3557;" vertex="1" parent="236">
                    <mxGeometry x="424" width="131" height="32" as="geometry"/>
                </mxCell>
                <mxCell id="242" style="shape=partialRectangle;html=1;whiteSpace=wrap;connectable=0;fillColor=none;top=0;left=0;bottom=0;right=0;align=left;spacingLeft=6;overflow=hidden;strokeColor=#457B9D;fontColor=#1D3557;" vertex="1" parent="236">
                    <mxGeometry x="555" width="106" height="32" as="geometry"/>
                </mxCell>
                <mxCell id="243" style="shape=partialRectangle;html=1;whiteSpace=wrap;connectable=0;fillColor=none;top=0;left=0;bottom=0;right=0;align=left;spacingLeft=6;overflow=hidden;strokeColor=#457B9D;fontColor=#1D3557;" vertex="1" parent="236">
                    <mxGeometry x="661" width="157" height="32" as="geometry"/>
                </mxCell>
                <mxCell id="60" value="mutts" style="shape=table;startSize=30;container=1;collapsible=0;childLayout=tableLayout;fixedRows=1;rowLines=0;fontStyle=1;align=center;fillColor=#A8DADC;strokeColor=#457B9D;fontColor=#1D3557;rounded=1;shadow=0;" parent="1" vertex="1">
                    <mxGeometry x="472" y="307" width="367.77" height="119" as="geometry"/>
                </mxCell>
                <mxCell id="61" style="shape=partialRectangle;html=1;whiteSpace=wrap;collapsible=0;dropTarget=0;pointerEvents=0;fillColor=none;top=0;left=0;bottom=1;right=0;points=[[0,0.5],[1,0.5]];portConstraint=eastwest;strokeColor=#457B9D;fontColor=#1D3557;" parent="60" vertex="1">
                    <mxGeometry y="30" width="367.77" height="30" as="geometry"/>
                </mxCell>
                <mxCell id="62" value="&lt;u&gt;id&lt;/u&gt;" style="shape=partialRectangle;html=1;whiteSpace=wrap;connectable=0;fillColor=none;top=0;left=0;bottom=0;right=0;overflow=hidden;strokeColor=#457B9D;fontColor=#1D3557;" parent="61" vertex="1">
                    <mxGeometry width="47" height="30" as="geometry"/>
                </mxCell>
                <mxCell id="63" value="&lt;u&gt;dog_id&lt;/u&gt;" style="shape=partialRectangle;html=1;whiteSpace=wrap;connectable=0;fillColor=none;top=0;left=0;bottom=0;right=0;align=left;spacingLeft=6;overflow=hidden;strokeColor=#457B9D;fontColor=#1D3557;" parent="61" vertex="1">
                    <mxGeometry x="47" width="87" height="30" as="geometry"/>
                </mxCell>
                <mxCell id="64" value="&lt;u&gt;part_one_dog_id&lt;/u&gt;" style="shape=partialRectangle;html=1;whiteSpace=wrap;connectable=0;fillColor=none;top=0;left=0;bottom=0;right=0;align=left;spacingLeft=6;overflow=hidden;strokeColor=#457B9D;fontColor=#1D3557;" parent="61" vertex="1">
                    <mxGeometry x="134" width="117" height="30" as="geometry"/>
                </mxCell>
                <mxCell id="227" value="part_two_dog_id" style="shape=partialRectangle;html=1;whiteSpace=wrap;connectable=0;fillColor=none;top=0;left=0;bottom=0;right=0;align=left;spacingLeft=6;overflow=hidden;strokeColor=#457B9D;fontColor=#1D3557;" vertex="1" parent="61">
                    <mxGeometry x="251" width="117" height="30" as="geometry"/>
                </mxCell>
                <mxCell id="65" value="" style="shape=partialRectangle;html=1;whiteSpace=wrap;collapsible=0;dropTarget=0;pointerEvents=0;fillColor=none;top=0;left=0;bottom=1;right=0;points=[[0,0.5],[1,0.5]];portConstraint=eastwest;strokeColor=#457B9D;fontColor=#1D3557;" parent="60" vertex="1">
                    <mxGeometry y="60" width="367.77" height="30" as="geometry"/>
                </mxCell>
                <mxCell id="66" value="1" style="shape=partialRectangle;html=1;whiteSpace=wrap;connectable=0;fillColor=none;top=0;left=0;bottom=0;right=0;overflow=hidden;strokeColor=#457B9D;fontColor=#1D3557;" parent="65" vertex="1">
                    <mxGeometry width="47" height="30" as="geometry"/>
                </mxCell>
                <mxCell id="67" value="3" style="shape=partialRectangle;html=1;whiteSpace=wrap;connectable=0;fillColor=none;top=0;left=0;bottom=0;right=0;align=left;spacingLeft=6;overflow=hidden;strokeColor=#457B9D;fontColor=#1D3557;" parent="65" vertex="1">
                    <mxGeometry x="47" width="87" height="30" as="geometry"/>
                </mxCell>
                <mxCell id="68" value="1" style="shape=partialRectangle;html=1;whiteSpace=wrap;connectable=0;fillColor=none;top=0;left=0;bottom=0;right=0;align=left;spacingLeft=6;overflow=hidden;strokeColor=#457B9D;fontColor=#1D3557;" parent="65" vertex="1">
                    <mxGeometry x="134" width="117" height="30" as="geometry"/>
                </mxCell>
                <mxCell id="228" value="2" style="shape=partialRectangle;html=1;whiteSpace=wrap;connectable=0;fillColor=none;top=0;left=0;bottom=0;right=0;align=left;spacingLeft=6;overflow=hidden;strokeColor=#457B9D;fontColor=#1D3557;" vertex="1" parent="65">
                    <mxGeometry x="251" width="117" height="30" as="geometry"/>
                </mxCell>
                <mxCell id="69" style="shape=partialRectangle;html=1;whiteSpace=wrap;collapsible=0;dropTarget=0;pointerEvents=0;fillColor=none;top=0;left=0;bottom=1;right=0;points=[[0,0.5],[1,0.5]];portConstraint=eastwest;strokeColor=#457B9D;fontColor=#1D3557;" parent="60" vertex="1">
                    <mxGeometry y="90" width="367.77" height="29" as="geometry"/>
                </mxCell>
                <mxCell id="70" value="2" style="shape=partialRectangle;html=1;whiteSpace=wrap;connectable=0;fillColor=none;top=0;left=0;bottom=0;right=0;overflow=hidden;strokeColor=#457B9D;fontColor=#1D3557;" parent="69" vertex="1">
                    <mxGeometry width="47" height="29" as="geometry"/>
                </mxCell>
                <mxCell id="71" value="" style="shape=partialRectangle;html=1;whiteSpace=wrap;connectable=0;fillColor=none;top=0;left=0;bottom=0;right=0;align=left;spacingLeft=6;overflow=hidden;strokeColor=#457B9D;fontColor=#1D3557;" parent="69" vertex="1">
                    <mxGeometry x="47" width="87" height="29" as="geometry"/>
                </mxCell>
                <mxCell id="72" value="" style="shape=partialRectangle;html=1;whiteSpace=wrap;connectable=0;fillColor=none;top=0;left=0;bottom=0;right=0;align=left;spacingLeft=6;overflow=hidden;strokeColor=#457B9D;fontColor=#1D3557;" parent="69" vertex="1">
                    <mxGeometry x="134" width="117" height="29" as="geometry"/>
                </mxCell>
                <mxCell id="229" style="shape=partialRectangle;html=1;whiteSpace=wrap;connectable=0;fillColor=none;top=0;left=0;bottom=0;right=0;align=left;spacingLeft=6;overflow=hidden;strokeColor=#457B9D;fontColor=#1D3557;" vertex="1" parent="69">
                    <mxGeometry x="251" width="117" height="29" as="geometry"/>
                </mxCell>
                <mxCell id="149" value="users" style="shape=table;startSize=35;container=1;collapsible=0;childLayout=tableLayout;fixedRows=1;rowLines=0;fontStyle=1;align=center;fillColor=#A8DADC;strokeColor=#457B9D;fontColor=#1D3557;rounded=1;shadow=0;" parent="1" vertex="1">
                    <mxGeometry x="74" y="310" width="325.25" height="123" as="geometry"/>
                </mxCell>
                <mxCell id="150" style="shape=partialRectangle;html=1;whiteSpace=wrap;collapsible=0;dropTarget=0;pointerEvents=0;fillColor=none;top=0;left=0;bottom=1;right=0;points=[[0,0.5],[1,0.5]];portConstraint=eastwest;strokeColor=#457B9D;fontColor=#1D3557;" parent="149" vertex="1">
                    <mxGeometry y="35" width="325.25" height="30" as="geometry"/>
                </mxCell>
                <mxCell id="151" value="&lt;u&gt;id&lt;/u&gt;" style="shape=partialRectangle;html=1;whiteSpace=wrap;connectable=0;fillColor=none;top=0;left=0;bottom=0;right=0;overflow=hidden;strokeColor=#457B9D;fontColor=#1D3557;" parent="150" vertex="1">
                    <mxGeometry width="28" height="30" as="geometry"/>
                </mxCell>
                <mxCell id="152" value="&lt;u&gt;name&lt;/u&gt;" style="shape=partialRectangle;html=1;whiteSpace=wrap;connectable=0;fillColor=none;top=0;left=0;bottom=0;right=0;align=left;spacingLeft=6;overflow=hidden;strokeColor=#457B9D;fontColor=#1D3557;" parent="150" vertex="1">
                    <mxGeometry x="28" width="149" height="30" as="geometry"/>
                </mxCell>
                <mxCell id="154" value="" style="shape=partialRectangle;html=1;whiteSpace=wrap;connectable=0;fillColor=none;top=0;left=0;bottom=0;right=0;align=left;spacingLeft=6;overflow=hidden;strokeColor=#457B9D;fontColor=#1D3557;fontStyle=4" parent="150" vertex="1">
                    <mxGeometry x="177" width="148" height="30" as="geometry"/>
                </mxCell>
                <mxCell id="155" value="" style="shape=partialRectangle;html=1;whiteSpace=wrap;collapsible=0;dropTarget=0;pointerEvents=0;fillColor=none;top=0;left=0;bottom=1;right=0;points=[[0,0.5],[1,0.5]];portConstraint=eastwest;strokeColor=#457B9D;fontColor=#1D3557;" parent="149" vertex="1">
                    <mxGeometry y="65" width="325.25" height="28" as="geometry"/>
                </mxCell>
                <mxCell id="156" value="1" style="shape=partialRectangle;html=1;whiteSpace=wrap;connectable=0;fillColor=none;top=0;left=0;bottom=0;right=0;overflow=hidden;strokeColor=#457B9D;fontColor=#1D3557;" parent="155" vertex="1">
                    <mxGeometry width="28" height="28" as="geometry"/>
                </mxCell>
                <mxCell id="157" value="" style="shape=partialRectangle;html=1;whiteSpace=wrap;connectable=0;fillColor=none;top=0;left=0;bottom=0;right=0;align=left;spacingLeft=6;overflow=hidden;strokeColor=#457B9D;fontColor=#1D3557;" parent="155" vertex="1">
                    <mxGeometry x="28" width="149" height="28" as="geometry"/>
                </mxCell>
                <mxCell id="159" value="" style="shape=partialRectangle;html=1;whiteSpace=wrap;connectable=0;fillColor=none;top=0;left=0;bottom=0;right=0;align=left;spacingLeft=6;overflow=hidden;strokeColor=#457B9D;fontColor=#1D3557;" parent="155" vertex="1">
                    <mxGeometry x="177" width="148" height="28" as="geometry"/>
                </mxCell>
                <mxCell id="160" style="shape=partialRectangle;html=1;whiteSpace=wrap;collapsible=0;dropTarget=0;pointerEvents=0;fillColor=none;top=0;left=0;bottom=1;right=0;points=[[0,0.5],[1,0.5]];portConstraint=eastwest;strokeColor=#457B9D;fontColor=#1D3557;" parent="149" vertex="1">
                    <mxGeometry y="93" width="325.25" height="30" as="geometry"/>
                </mxCell>
                <mxCell id="161" value="2" style="shape=partialRectangle;html=1;whiteSpace=wrap;connectable=0;fillColor=none;top=0;left=0;bottom=0;right=0;overflow=hidden;strokeColor=#457B9D;fontColor=#1D3557;" parent="160" vertex="1">
                    <mxGeometry width="28" height="30" as="geometry"/>
                </mxCell>
                <mxCell id="162" value="" style="shape=partialRectangle;html=1;whiteSpace=wrap;connectable=0;fillColor=none;top=0;left=0;bottom=0;right=0;align=left;spacingLeft=6;overflow=hidden;strokeColor=#457B9D;fontColor=#1D3557;" parent="160" vertex="1">
                    <mxGeometry x="28" width="149" height="30" as="geometry"/>
                </mxCell>
                <mxCell id="164" style="shape=partialRectangle;html=1;whiteSpace=wrap;connectable=0;fillColor=none;top=0;left=0;bottom=0;right=0;align=left;spacingLeft=6;overflow=hidden;strokeColor=#457B9D;fontColor=#1D3557;" parent="160" vertex="1">
                    <mxGeometry x="177" width="148" height="30" as="geometry"/>
                </mxCell>
                <mxCell id="185" value="&lt;b&gt;&lt;font style=&quot;font-size: 32px&quot; color=&quot;#1a1a1a&quot;&gt;Dog Browser&lt;/font&gt;&lt;/b&gt;" style="text;html=1;fillColor=none;align=center;verticalAlign=middle;whiteSpace=wrap;rounded=1;shadow=1;sketch=0;glass=1;strokeWidth=4;perimeterSpacing=4;strokeColor=#A8DADC;" vertex="1" parent="1">
                    <mxGeometry x="350" y="19" width="270" height="49" as="geometry"/>
                </mxCell>
                <mxCell id="194" value="saved_dogs" style="shape=table;startSize=35;container=1;collapsible=0;childLayout=tableLayout;fixedRows=1;rowLines=0;fontStyle=1;align=center;fillColor=#A8DADC;strokeColor=#457B9D;fontColor=#1D3557;rounded=1;shadow=0;" vertex="1" parent="1">
                    <mxGeometry x="101" y="453" width="266" height="166" as="geometry"/>
                </mxCell>
                <mxCell id="195" style="shape=partialRectangle;html=1;whiteSpace=wrap;collapsible=0;dropTarget=0;pointerEvents=0;fillColor=none;top=0;left=0;bottom=1;right=0;points=[[0,0.5],[1,0.5]];portConstraint=eastwest;strokeColor=#457B9D;fontColor=#1D3557;" vertex="1" parent="194">
                    <mxGeometry y="35" width="266" height="39" as="geometry"/>
                </mxCell>
                <mxCell id="196" value="&lt;u&gt;id&lt;/u&gt;" style="shape=partialRectangle;html=1;whiteSpace=wrap;connectable=0;fillColor=none;top=0;left=0;bottom=0;right=0;overflow=hidden;strokeColor=#457B9D;fontColor=#1D3557;" vertex="1" parent="195">
                    <mxGeometry width="31" height="39" as="geometry"/>
                </mxCell>
                <mxCell id="197" value="&lt;u&gt;user_id&lt;/u&gt;" style="shape=partialRectangle;html=1;whiteSpace=wrap;connectable=0;fillColor=none;top=0;left=0;bottom=0;right=0;align=left;spacingLeft=6;overflow=hidden;strokeColor=#457B9D;fontColor=#1D3557;" vertex="1" parent="195">
                    <mxGeometry x="31" width="88" height="39" as="geometry"/>
                </mxCell>
                <mxCell id="198" value="dog_id" style="shape=partialRectangle;html=1;whiteSpace=wrap;connectable=0;fillColor=none;top=0;left=0;bottom=0;right=0;align=left;spacingLeft=6;overflow=hidden;strokeColor=#457B9D;fontColor=#1D3557;fontStyle=4" vertex="1" parent="195">
                    <mxGeometry x="119" width="147" height="39" as="geometry"/>
                </mxCell>
                <mxCell id="201" value="" style="shape=partialRectangle;html=1;whiteSpace=wrap;collapsible=0;dropTarget=0;pointerEvents=0;fillColor=none;top=0;left=0;bottom=1;right=0;points=[[0,0.5],[1,0.5]];portConstraint=eastwest;strokeColor=#457B9D;fontColor=#1D3557;" vertex="1" parent="194">
                    <mxGeometry y="74" width="266" height="31" as="geometry"/>
                </mxCell>
                <mxCell id="202" value="1" style="shape=partialRectangle;html=1;whiteSpace=wrap;connectable=0;fillColor=none;top=0;left=0;bottom=0;right=0;overflow=hidden;strokeColor=#457B9D;fontColor=#1D3557;" vertex="1" parent="201">
                    <mxGeometry width="31" height="31" as="geometry"/>
                </mxCell>
                <mxCell id="203" value="" style="shape=partialRectangle;html=1;whiteSpace=wrap;connectable=0;fillColor=none;top=0;left=0;bottom=0;right=0;align=left;spacingLeft=6;overflow=hidden;strokeColor=#457B9D;fontColor=#1D3557;" vertex="1" parent="201">
                    <mxGeometry x="31" width="88" height="31" as="geometry"/>
                </mxCell>
                <mxCell id="204" value="" style="shape=partialRectangle;html=1;whiteSpace=wrap;connectable=0;fillColor=none;top=0;left=0;bottom=0;right=0;align=left;spacingLeft=6;overflow=hidden;strokeColor=#457B9D;fontColor=#1D3557;" vertex="1" parent="201">
                    <mxGeometry x="119" width="147" height="31" as="geometry"/>
                </mxCell>
                <mxCell id="207" style="shape=partialRectangle;html=1;whiteSpace=wrap;collapsible=0;dropTarget=0;pointerEvents=0;fillColor=none;top=0;left=0;bottom=1;right=0;points=[[0,0.5],[1,0.5]];portConstraint=eastwest;strokeColor=#457B9D;fontColor=#1D3557;" vertex="1" parent="194">
                    <mxGeometry y="105" width="266" height="29" as="geometry"/>
                </mxCell>
                <mxCell id="208" value="2" style="shape=partialRectangle;html=1;whiteSpace=wrap;connectable=0;fillColor=none;top=0;left=0;bottom=0;right=0;overflow=hidden;strokeColor=#457B9D;fontColor=#1D3557;" vertex="1" parent="207">
                    <mxGeometry width="31" height="29" as="geometry"/>
                </mxCell>
                <mxCell id="209" value="" style="shape=partialRectangle;html=1;whiteSpace=wrap;connectable=0;fillColor=none;top=0;left=0;bottom=0;right=0;align=left;spacingLeft=6;overflow=hidden;strokeColor=#457B9D;fontColor=#1D3557;" vertex="1" parent="207">
                    <mxGeometry x="31" width="88" height="29" as="geometry"/>
                </mxCell>
                <mxCell id="210" value="" style="shape=partialRectangle;html=1;whiteSpace=wrap;connectable=0;fillColor=none;top=0;left=0;bottom=0;right=0;align=left;spacingLeft=6;overflow=hidden;strokeColor=#457B9D;fontColor=#1D3557;" vertex="1" parent="207">
                    <mxGeometry x="119" width="147" height="29" as="geometry"/>
                </mxCell>
                <mxCell id="213" style="shape=partialRectangle;html=1;whiteSpace=wrap;collapsible=0;dropTarget=0;pointerEvents=0;fillColor=none;top=0;left=0;bottom=1;right=0;points=[[0,0.5],[1,0.5]];portConstraint=eastwest;strokeColor=#457B9D;fontColor=#1D3557;" vertex="1" parent="194">
                    <mxGeometry y="134" width="266" height="32" as="geometry"/>
                </mxCell>
                <mxCell id="214" value="3" style="shape=partialRectangle;html=1;whiteSpace=wrap;connectable=0;fillColor=none;top=0;left=0;bottom=0;right=0;overflow=hidden;strokeColor=#457B9D;fontColor=#1D3557;" vertex="1" parent="213">
                    <mxGeometry width="31" height="32" as="geometry"/>
                </mxCell>
                <mxCell id="215" value="" style="shape=partialRectangle;html=1;whiteSpace=wrap;connectable=0;fillColor=none;top=0;left=0;bottom=0;right=0;align=left;spacingLeft=6;overflow=hidden;strokeColor=#457B9D;fontColor=#1D3557;" vertex="1" parent="213">
                    <mxGeometry x="31" width="88" height="32" as="geometry"/>
                </mxCell>
                <mxCell id="216" style="shape=partialRectangle;html=1;whiteSpace=wrap;connectable=0;fillColor=none;top=0;left=0;bottom=0;right=0;align=left;spacingLeft=6;overflow=hidden;strokeColor=#457B9D;fontColor=#1D3557;" vertex="1" parent="213">
                    <mxGeometry x="119" width="147" height="32" as="geometry"/>
                </mxCell>
            </root>
        </mxGraphModel>
    </diagram>
</mxfile>